<svg id="SvgjsSvg1044" width="288" height="288" xmlns="http://www.w3.org/2000/svg" version="1.1" xmlns:xlink="http://www.w3.org/1999/xlink" xmlns:svgjs="http://svgjs.com/svgjs"><defs id="SvgjsDefs1045"></defs><g id="SvgjsG1046"><svg xmlns="http://www.w3.org/2000/svg" enable-background="new 0 0 1000 1000" viewBox="0 0 1000 1000" width="288" height="288"><path fill="#ffffff" d="M836.5,404.6c-1.9,0-3.7,0.1-5.5,0.2l-26-67.1c6.7-7.8,10.8-17.9,10.8-29c0-24.6-20-44.6-44.6-44.6		c-7.7,0-14.9,1.9-21.2,5.4L663,207c0.8-3.6,1.3-7.4,1.3-11.3c0-28.3-23-51.4-51.4-51.4c-19,0-35.7,10.4-44.5,25.8l-102.1-12.4
		c-6.1-27.1-30.4-47.3-59.3-47.3c-33.5,0-60.8,27.3-60.8,60.8c0,3.4,0.3,6.8,0.8,10.1l-85.3,43.2c-9-7.8-20.7-12.5-33.5-12.5
		c-28.3,0-51.4,23-51.4,51.4c0,12.6,4.6,24.2,12.1,33.1l-52.1,113c-23.9,0.8-43.2,20.5-43.2,44.6c0,24.6,20,44.6,44.6,44.6
		c2.3,0,4.6-0.2,6.8-0.5l60.3,84.8c-9.2,11.8-14.8,26.7-14.8,42.8c0,38.4,31.3,69.7,69.7,69.7c31.5,0,58.2-21,66.8-49.7h129
		l34.5,42.7v15.2c-16.3,7.7-27.7,24.3-27.7,43.5c0,26.5,21.5,48,48,48c26.5,0,48-21.5,48-48c0-19.5-11.7-36.3-28.4-43.8v-22
		c0-4.6-1.6-9-4.4-12.6l-44.9-55.7c-3.8-4.7-9.5-7.4-15.6-7.4H327.3c-0.4-1.5-0.9-2.9-1.4-4.3l58.9-44.5c6.3,2.7,13.2,4.3,20.5,4.3
		c19.4,0,36.4-10.8,45.1-26.8l92.7-0.4c7.2,15,22.5,25.4,40.3,25.4c5,0,9.9-0.8,14.4-2.4l97,98.8h-71.4c-6,0-11.7,2.7-15.5,7.4
		l-30,36.7c-2.9,3.6-4.5,8-4.5,12.6v68.3c-21.1,8.1-36.1,28.5-36.1,52.4c0,31,25.2,56.2,56.2,56.2s56.2-25.2,56.2-56.2
		c0-24-15.1-44.4-36.2-52.5v-61.1l19.5-23.9H695c7.8,18.4,26.1,31.4,47.3,31.4c28.3,0,51.4-23,51.4-51.4c0-12.9-4.8-24.8-12.7-33.8
		l45.7-98.8c3.2,0.5,6.5,0.7,9.9,0.7c38.4,0,69.7-31.3,69.7-69.7S874.9,404.6,836.5,404.6z M577.1,833.4c0-8.9,7.3-16.2,16.2-16.2
		s16.2,7.3,16.2,16.2s-7.3,16.2-16.2,16.2S577.1,842.3,577.1,833.4z M836.5,504c-16.4,0-29.7-13.3-29.7-29.7s13.3-29.7,29.7-29.7
		s29.7,13.3,29.7,29.7S852.9,504,836.5,504z M782.8,429.9l-104-44c0-0.3,0-0.7,0-1c0-25.2-15.4-46.8-37.2-56l-5.6-87.2
		c1.3-0.6,2.5-1.3,3.8-2.1l87.2,62.6c-0.3,2.1-0.5,4.3-0.5,6.5c0,23.6,18.4,42.9,41.6,44.5l25.7,66.1
		C789.7,422.4,786,426,782.8,429.9z M577.1,470.7c-14.5,2-26.8,11-33.3,23.4l-89.6,0.4c-6-19.1-23-33.4-43.5-35.6l-16.1-50.1
		c11.6-8.9,20.3-21.3,24.5-35.7l139,21.6c3,18.6,14.6,34.4,30.5,43.3L577.1,470.7z M260.5,655.6c-16.4,0-29.7-13.3-29.7-29.7
		s13.3-29.7,29.7-29.7s29.7,13.3,29.7,29.7S276.9,655.6,260.5,655.6z M260.5,556.2c-7.8,0-15.3,1.3-22.4,3.7L177.8,475
		c3.3-6.2,5.2-13.4,5.2-20.9c0-0.2,0-0.5,0-0.7l112.8-58.9c12.7,17.4,33.2,28.7,56.3,28.7c1.6,0,3.3-0.1,4.9-0.2l15.3,47.5
		c-11.3,9.4-18.5,23.6-18.5,39.4c0,6.3,1.1,12.3,3.2,17.9l-55.4,41.9C290.1,561.2,275.9,556.2,260.5,556.2z M228.3,274.8
		c-6.3,0-11.4-5.1-11.4-11.4s5.1-11.4,11.4-11.4s11.4,5.1,11.4,11.4S234.6,274.8,228.3,274.8z M228.3,314.8
		c28.3,0,51.4-23,51.4-51.4c0-1,0-2-0.1-3l86.8-44c2,1.8,4.1,3.5,6.4,5l-21.5,62.3c-38,0.5-68.8,31.6-68.8,69.7c0,1,0,1.9,0.1,2.8
		l-101.3,53l43.6-94.6C226,314.7,227.1,314.8,228.3,314.8z M407.1,150.5c11.5,0,20.8,9.3,20.8,20.8s-9.3,20.8-20.8,20.8
		s-20.8-9.3-20.8-20.8S395.6,150.5,407.1,150.5z M597.2,384.9c0-11.5,9.3-20.8,20.8-20.8s20.8,9.3,20.8,20.8s-9.3,20.8-20.8,20.8
		S597.2,396.3,597.2,384.9z M612.9,207.1c-6.3,0-11.4-5.1-11.4-11.4s5.1-11.4,11.4-11.4s11.4,5.1,11.4,11.4S619.2,207.1,612.9,207.1
		z M596,244.2l5.3,82.2c-15.6,4.5-28.6,15-36.4,28.8l-146.2-22.7c-4.9-15.7-15.3-29-28.9-37.8l21.7-62.9
		c22.2-1.6,41.2-15.2,50.4-34.3l101.7,12.3C568.2,225.9,580.4,238.7,596,244.2z M352.2,383.2c-16.4,0-29.7-13.3-29.7-29.7
		s13.3-29.7,29.7-29.7s29.7,13.3,29.7,29.7S368.6,383.2,352.2,383.2z M405.2,521.3c-6.3,0-11.4-5.1-11.4-11.4
		c0-6.3,5.1-11.4,11.4-11.4s11.4,5.1,11.4,11.4C416.5,516.2,411.4,521.3,405.2,521.3z M753.6,675.9c0,6.3-5.1,11.4-11.4,11.4
		c-6.3,0-11.4-5.1-11.4-11.4s5.1-11.4,11.4-11.4C748.5,664.6,753.6,669.6,753.6,675.9z M744.9,624.6c-0.9,0-1.7-0.1-2.6-0.1
		c-6.7,0-13,1.3-18.9,3.6l-97.7-99.5c1.4-4.3,2.2-8.9,2.2-13.7c0-12.2-4.9-23.3-12.9-31.3l13.5-38.9c14.6-2.6,27.4-10.3,36.4-21.3
		l102.2,43.3c-0.3,2.5-0.4,5-0.4,7.6c0,20.8,9.1,39.4,23.6,52.2L744.9,624.6z" class="color666 svgShape"></path></svg></g></svg>