<svg id="SvgjsSvg1076" width="288" height="288" xmlns="http://www.w3.org/2000/svg" version="1.1" xmlns:xlink="http://www.w3.org/1999/xlink" xmlns:svgjs="http://svgjs.com/svgjs"><defs id="SvgjsDefs1077"></defs><g id="SvgjsG1078"><svg xmlns="http://www.w3.org/2000/svg" viewBox="0 0 48 48" width="288" height="288"><path fill="#a6a9b7" d="M8,45H40a1,1,0,0,0,1-1V39.828a2,2,0,0,0-.586-1.414L39,37V28A15,15,0,0,0,24,13h0A15,15,0,0,0,9,28v9L7.586,38.414A2,2,0,0,0,7,39.828V44A1,1,0,0,0,8,45Z" class="color70a9ed svgShape"></path><path fill="#7c7f93" d="M27,18a1,1,0,0,1-1-1,3.068,3.068,0,0,0-2-2.944A3.07,3.07,0,0,0,22,17a1,1,0,0,1-2,0,5.139,5.139,0,0,1,3.742-4.966,1,1,0,0,1,.516,0A5.139,5.139,0,0,1,28,17,1,1,0,0,1,27,18Z" class="color417ace svgShape"></path><polygon fill="#a6a9b7" points="21 9 15 3 33 3 27 9 21 9" class="color70a9ed svgShape"></polygon><path fill="#e8e9ed" d="M29,30H20V26h9a1,1,0,0,0,0-2H25V21a1,1,0,0,0-2,0v3H19a1,1,0,0,0-1,1v6a1,1,0,0,0,1,1h9v4H19a1,1,0,0,0,0,2h4v3a1,1,0,0,0,2,0V38h4a1,1,0,0,0,1-1V31A1,1,0,0,0,29,30Z" class="colore0e9f5 svgShape"></path><rect width="10" height="5" x="19" y="9" fill="#d5d6dd" rx="2.5" class="colorb3d9ff svgShape"></rect></svg></g></svg>