<svg id="SvgjsSvg1027" width="288" height="288" xmlns="http://www.w3.org/2000/svg" version="1.1" xmlns:xlink="http://www.w3.org/1999/xlink" xmlns:svgjs="http://svgjs.com/svgjs"><defs id="SvgjsDefs1028"></defs><g id="SvgjsG1029"><svg xmlns="http://www.w3.org/2000/svg" viewBox="0 0 48 48" width="288" height="288"><path fill="#a6a9b7" d="M7,33h4a1,1,0,0,1,1,1v9a0,0,0,0,1,0,0H6a0,0,0,0,1,0,0V34A1,1,0,0,1,7,33Z" class="color70a9ed svgShape"></path><path fill="#7c7f93" d="M17,29h4a1,1,0,0,1,1,1V43a0,0,0,0,1,0,0H16a0,0,0,0,1,0,0V30A1,1,0,0,1,17,29Z" class="color417ace svgShape"></path><path fill="#a6a9b7" d="M27,25h4a1,1,0,0,1,1,1V43a0,0,0,0,1,0,0H26a0,0,0,0,1,0,0V26A1,1,0,0,1,27,25Z" class="color70a9ed svgShape"></path><path fill="#7c7f93" d="M37 21h4a1 1 0 0 1 1 1V43a0 0 0 0 1 0 0H36a0 0 0 0 1 0 0V22A1 1 0 0 1 37 21zM45.707 4.293a1 1 0 0 0-.95-.263l-8 2a1 1 0 0 0 .486 1.94l4.733-1.183L31.564 18H16a1 1 0 0 0-.61.208l-13 10a1 1 0 1 0 1.22 1.584L16.34 20H32a1 1 0 0 0 .733-.319L43.086 8.531 42.03 12.757a1 1 0 0 0 .727 1.213A.976.976 0 0 0 43 14a1 1 0 0 0 .969-.757l2-8A1 1 0 0 0 45.707 4.293z" class="color417ace svgShape"></path><rect width="44" height="2" x="2" y="41" fill="#d5d6dd" rx="1" class="colorb3d9ff svgShape"></rect></svg></g></svg>