<svg id="SvgjsSvg1066" width="288" height="288" xmlns="http://www.w3.org/2000/svg" version="1.1" xmlns:xlink="http://www.w3.org/1999/xlink" xmlns:svgjs="http://svgjs.com/svgjs"><defs id="SvgjsDefs1067"></defs><g id="SvgjsG1068"><svg xmlns="http://www.w3.org/2000/svg" viewBox="0 0 48 48" width="288" height="288"><path fill="#a6a9b7" d="M31 15a1 1 0 0 1-1-1V11H18v3a1 1 0 0 1-2 0V10a1 1 0 0 1 1-1H31a1 1 0 0 1 1 1v4A1 1 0 0 1 31 15zM3 17V38a1 1 0 0 0 1 1H44a1 1 0 0 0 1-1V17z" class="color70a9ed svgShape"></path><path fill="#d5d6dd" d="M4,13H44a1,1,0,0,1,1,1v3A10,10,0,0,1,35,27H13A10,10,0,0,1,3,17V14A1,1,0,0,1,4,13Z" class="colorb3d9ff svgShape"></path><rect width="6" height="5" x="13" y="26" fill="#d5d6dd" rx="1" class="colorb3d9ff svgShape"></rect><rect width="3" height="3" x="14.5" y="27" fill="#7c7f93" rx=".5" class="color417ace svgShape"></rect><rect width="6" height="5" x="29" y="26" fill="#d5d6dd" rx="1" class="colorb3d9ff svgShape"></rect><rect width="3" height="3" x="30.5" y="27" fill="#7c7f93" rx=".5" class="color417ace svgShape"></rect></svg></g></svg>