<svg id="SvgjsSvg1049" width="288" height="288" xmlns="http://www.w3.org/2000/svg" version="1.1" xmlns:xlink="http://www.w3.org/1999/xlink" xmlns:svgjs="http://svgjs.com/svgjs"><defs id="SvgjsDefs1050"></defs><g id="SvgjsG1051"><svg xmlns="http://www.w3.org/2000/svg" viewBox="0 0 48 48" width="288" height="288"><polygon fill="#a6a9b7" points="13 26 33 32 34 32 34 10 33 10 13 16 11 16 11 26 13 26" class="color70a9ed svgShape"></polygon><path fill="#a6a9b7" d="M9,19,4.056,36.305A2.9,2.9,0,0,0,6.843,40h0A2.9,2.9,0,0,0,9.62,37.934L15,20Z" class="color70a9ed svgShape"></path><path fill="#7c7f93" d="M7 16h6V26H7a4 4 0 0 1-4-4V20A4 4 0 0 1 7 16zM33 10V9a1 1 0 0 1 1-1h2a1 1 0 0 1 1 1V33a1 1 0 0 1-1 1H34a1 1 0 0 1-1-1V10z" class="color417ace svgShape"></path><path fill="#d5d6dd" d="M44 22H40a1 1 0 0 1 0-2h4a1 1 0 0 1 0 2zM40 16a1 1 0 0 1-.707-1.707l4-4a1 1 0 0 1 1.414 1.414l-4 4A1 1 0 0 1 40 16zM44 32a1 1 0 0 1-.707-.293l-4-4a1 1 0 0 1 1.414-1.414l4 4A1 1 0 0 1 44 32z" class="colorb3d9ff svgShape"></path></svg></g></svg>