<svg id="SvgjsSvg1036" width="288" height="288" xmlns="http://www.w3.org/2000/svg" version="1.1" xmlns:xlink="http://www.w3.org/1999/xlink" xmlns:svgjs="http://svgjs.com/svgjs"><defs id="SvgjsDefs1037"></defs><g id="SvgjsG1038"><svg xmlns="http://www.w3.org/2000/svg" viewBox="0 0 48 48" width="288" height="288"><rect width="4" height="16" x="8" y="22" fill="#d5d6dd" class="colorb3d9ff svgShape"></rect><path fill="#a6a9b7" d="M14 18v4a1 1 0 0 1-1 1H7a1 1 0 0 1-1-1V18zM14 42V38a1 1 0 0 0-1-1H7a1 1 0 0 0-1 1v4z" class="color70a9ed svgShape"></path><rect width="4" height="16" x="22" y="22" fill="#d5d6dd" class="colorb3d9ff svgShape"></rect><path fill="#a6a9b7" d="M28 18v4a1 1 0 0 1-1 1H21a1 1 0 0 1-1-1V18zM28 42V38a1 1 0 0 0-1-1H21a1 1 0 0 0-1 1v4z" class="color70a9ed svgShape"></path><rect width="4" height="16" x="36" y="22" fill="#d5d6dd" class="colorb3d9ff svgShape"></rect><path fill="#a6a9b7" d="M42 18v4a1 1 0 0 1-1 1H35a1 1 0 0 1-1-1V18zM42 42V38a1 1 0 0 0-1-1H35a1 1 0 0 0-1 1v4z" class="color70a9ed svgShape"></path><rect width="42" height="4" x="3" y="41" fill="#7c7f93" rx="1" class="color417ace svgShape"></rect><polygon fill="#7c7f93" points="24 3 3 19 45 19 24 3" class="color417ace svgShape"></polygon><circle cx="24" cy="12" r="3" fill="#e8e9ed" class="colore0e9f5 svgShape"></circle></svg></g></svg>