<svg id="SvgjsSvg1016" width="288" height="288" xmlns="http://www.w3.org/2000/svg" version="1.1" xmlns:xlink="http://www.w3.org/1999/xlink" xmlns:svgjs="http://svgjs.com/svgjs"><defs id="SvgjsDefs1017"></defs><g id="SvgjsG1018"><svg xmlns="http://www.w3.org/2000/svg" viewBox="0 0 48 48" width="288" height="288"><circle cx="24" cy="13" r="10" fill="#d5d6dd" class="colorb3d9ff svgShape"></circle><circle cx="24" cy="13" r="8.5" fill="#a6a9b7" class="color70a9ed svgShape"></circle><path fill="#e8e9ed" d="M27,12H22V10h5a1,1,0,0,0,0-2H25V7a1,1,0,0,0-2,0V8H21a1,1,0,0,0-1,1v4a1,1,0,0,0,1,1h5v2H21a1,1,0,0,0,0,2h2v1a1,1,0,0,0,2,0V18h2a1,1,0,0,0,1-1V13A1,1,0,0,0,27,12Z" class="colore0e9f5 svgShape"></path><path fill="#d5d6dd" d="M11,43V39L3.877,30.1A4,4,0,0,1,3,27.6V16.62A1.62,1.62,0,0,1,4.62,15h.008a1.621,1.621,0,0,1,1.6,1.354L8,27l7,4-2.938-5.875a2.375,2.375,0,0,1,1.063-3.187h0a2.374,2.374,0,0,1,3.038.807l4.165,6.247A4,4,0,0,1,21,31.211V43Z" class="colorb3d9ff svgShape"></path><path fill="#a6a9b7" d="M20,45H10a1,1,0,0,1-1-1V42a1,1,0,0,1,1-1H21v3A1,1,0,0,1,20,45Z" class="color70a9ed svgShape"></path><path fill="#d5d6dd" d="M37,43V39l7.123-8.9A4,4,0,0,0,45,27.6V16.62A1.62,1.62,0,0,0,43.38,15h-.008a1.621,1.621,0,0,0-1.6,1.354L40,27l-7,4,2.938-5.875a2.375,2.375,0,0,0-1.063-3.187h0a2.374,2.374,0,0,0-3.038.807l-4.165,6.247A4,4,0,0,0,27,31.211V43Z" class="colorb3d9ff svgShape"></path><path fill="#a6a9b7" d="M28,45H38a1,1,0,0,0,1-1V42a1,1,0,0,0-1-1H27v3A1,1,0,0,0,28,45Z" class="color70a9ed svgShape"></path></svg></g></svg>