<svg id="SvgjsSvg1001" width="288" height="288" xmlns="http://www.w3.org/2000/svg" version="1.1" xmlns:xlink="http://www.w3.org/1999/xlink" xmlns:svgjs="http://svgjs.com/svgjs"><defs id="SvgjsDefs1002"></defs><g id="SvgjsG1008"><svg xmlns="http://www.w3.org/2000/svg" viewBox="0 0 48 48" width="288" height="288"><circle cx="27" cy="21" r="19" fill="#a6a9b7" class="color70a9ed svgShape"></circle><path fill="#a6a9b7" d="M3,46a1,1,0,0,1-.707-1.707l13-13a1,1,0,0,1,1.414,1.414l-13,13A1,1,0,0,1,3,46Z" class="color70a9ed svgShape"></path><circle cx="27" cy="21" r="17" fill="#e8e9ed" class="colore0e9f5 svgShape"></circle><rect width="6" height="8" x="20" y="11" fill="#7c7f93" rx="3" class="color417ace svgShape"></rect><path fill="#7c7f93" d="M23,23h0a6,6,0,0,1,6,6v1a1,1,0,0,1-1,1H18a1,1,0,0,1-1-1V29A6,6,0,0,1,23,23Z" class="color417ace svgShape"></path><path fill="#a6a9b7" d="M39 18H33a1 1 0 0 1 0-2h6a1 1 0 0 1 0 2zM39 22H33a1 1 0 0 1 0-2h6a1 1 0 0 1 0 2zM37 26H33a1 1 0 0 1 0-2h4a1 1 0 0 1 0 2z" class="color70a9ed svgShape"></path></svg></g></svg>