<svg id="SvgjsSvg1057" width="288" height="288" xmlns="http://www.w3.org/2000/svg" version="1.1" xmlns:xlink="http://www.w3.org/1999/xlink" xmlns:svgjs="http://svgjs.com/svgjs"><defs id="SvgjsDefs1058"></defs><g id="SvgjsG1059"><svg xmlns="http://www.w3.org/2000/svg" viewBox="0 0 48 48" width="288" height="288"><path fill="#7c7f93" d="M22 39a10.6 10.6 0 0 0-5.36-.447A11.462 11.462 0 0 0 15 39a10.475 10.475 0 0 0-6 6V36.31a7.994 7.994 0 0 1 .978-3.832A10.2 10.2 0 0 1 11.34 30.66 24.983 24.983 0 0 1 14 28zM26 39a10.6 10.6 0 0 1 5.36-.447A11.462 11.462 0 0 1 33 39a10.475 10.475 0 0 1 6 6V36.31a7.994 7.994 0 0 0-.978-3.832A10.2 10.2 0 0 0 36.66 30.66 24.983 24.983 0 0 0 34 28z" class="color417ace svgShape"></path><path fill="#a6a9b7" d="M24,3l-1.619.883A18,18,0,0,0,13,19.685v4.63a18,18,0,0,0,9.381,15.8L24,41l1.619-.883A18,18,0,0,0,35,24.315v-4.63a18,18,0,0,0-9.381-15.8Z" class="color70a9ed svgShape"></path><circle cx="24" cy="18" r="6" fill="#d5d6dd" class="colorb3d9ff svgShape"></circle><circle cx="24" cy="18" r="4" fill="#e8e9ed" class="colore0e9f5 svgShape"></circle><path fill="#d5d6dd" d="M24 46l-.155-.311A7.994 7.994 0 0 1 23 42.111V29a1 1 0 0 1 2 0V42.111a7.994 7.994 0 0 1-.845 3.578zM31.48 9H16.52a17.99 17.99 0 0 1 5.86-5.12L24 3l1.62.88A17.99 17.99 0 0 1 31.48 9z" class="colorb3d9ff svgShape"></path></svg></g></svg>